<?xml version="1.0" encoding="utf-8"?>
<!-- Generator: Adobe Illustrator 22.1.0, SVG Export Plug-In . SVG Version: 6.00 Build 0)  -->
<svg version="1.1" id="Слой_1" xmlns="http://www.w3.org/2000/svg" xmlns:xlink="http://www.w3.org/1999/xlink" x="0px" y="0px"
	 viewBox="0 0 552 402" style="enable-background:new 0 0 552 402;" xml:space="preserve">
<style type="text/css">
	.st0{fill:#808080;}
	.st1{fill:#666666;}
	.st2{fill:#4D4D4D;}
	.st3{fill:#333333;}
	.st4{fill:#999999;}
	.st5{fill:none;stroke:#666666;stroke-width:2;stroke-miterlimit:10;}
	.st6{fill:none;stroke:#B3B3B3;stroke-miterlimit:10;}
	.st7{fill:none;stroke:#666666;stroke-miterlimit:10;}
	.st8{fill:none;stroke:#666666;stroke-linecap:round;stroke-miterlimit:10;}
	.st9{fill:#F2F2F2;stroke:#666666;stroke-linecap:round;stroke-miterlimit:10;}
	.st10{fill:#CCCCCC;}
	.st11{opacity:0.76;fill:#F2F2F2;enable-background:new    ;}
	.st12{fill:none;}
	.st13{font-family:'ArialMT';}
	.st14{font-size:24px;}
	.st15{fill:#FFFFFF;}
	.st16{font-size:19.0421px;}
	.st17{fill:#A4F900;}
	.st18{fill:none;stroke:#A4F900;stroke-width:2;stroke-miterlimit:10;}
	.st19{fill:#F2F2F2;}
	.st20{font-family:'MyriadPro-Regular';}
	.st21{font-size:12px;}
</style>
<g>
	<rect x="7.5" y="13.5" class="st0" width="91" height="82"/>
	<path class="st1" d="M98,14v81H8V14H98 M99,13H7v83h92V13L99,13z"/>
</g>
<g>
	<polygon class="st2" points="28.8,128.5 7.9,95.5 98.1,95.5 77.2,128.5 	"/>
	<path class="st3" d="M97.2,96L77,128H29L8.8,96H97.2 M99,95H7l21.5,34h49L99,95L99,95z"/>
</g>
<rect x="8" y="34" class="st4" width="90" height="1"/>
<rect x="8" y="39" class="st1" width="90" height="1"/>
<rect x="8" y="61" class="st4" width="90" height="1"/>
<rect x="8" y="66" class="st1" width="90" height="1"/>
<polygon class="st0" points="99,13.4 6.8,13.4 18.3,10 90.7,10 "/>
<rect x="18" y="10" class="st2" width="73" height="3.4"/>
<g>
	<rect x="116.8" y="13.5" class="st0" width="91" height="82"/>
	<path class="st1" d="M207.3,14v81h-90V14H207.3 M208.3,13h-92v83h92V13L208.3,13z"/>
</g>
<g>
	<polygon class="st2" points="138.1,128.5 117.2,95.5 207.4,95.5 186.6,128.5 	"/>
	<path class="st3" d="M206.5,96l-20.2,32h-47.9l-20.2-32H206.5 M208.3,95h-92l21.5,34h49L208.3,95L208.3,95z"/>
</g>
<rect x="117.3" y="34" class="st4" width="90" height="1"/>
<rect x="117.3" y="39" class="st1" width="90" height="1"/>
<rect x="117.3" y="61" class="st4" width="90" height="1"/>
<rect x="117.3" y="66" class="st1" width="90" height="1"/>
<polygon class="st0" points="208.3,13.4 116.1,13.4 127.7,10 200,10 "/>
<rect x="127.3" y="10" class="st2" width="73" height="3.4"/>
<g>
	<rect x="226.2" y="13.5" class="st0" width="91" height="82"/>
	<path class="st1" d="M316.7,14v81h-90V14H316.7 M317.7,13h-92v83h92V13L317.7,13z"/>
</g>
<g>
	<polygon class="st2" points="247.4,128.5 226.6,95.5 316.8,95.5 295.9,128.5 	"/>
	<path class="st3" d="M315.9,96l-20.2,32h-47.9l-20.2-32H315.9 M317.7,95h-92l21.5,34h49L317.7,95L317.7,95z"/>
</g>
<rect x="226.7" y="34" class="st4" width="90" height="1"/>
<rect x="226.7" y="39" class="st1" width="90" height="1"/>
<rect x="226.7" y="61" class="st4" width="90" height="1"/>
<rect x="226.7" y="66" class="st1" width="90" height="1"/>
<polygon class="st0" points="317.7,13.4 225.4,13.4 237,10 309.3,10 "/>
<rect x="236.7" y="10" class="st2" width="73" height="3.4"/>
<g>
	<rect x="335.5" y="13.5" class="st0" width="91" height="82"/>
	<path class="st1" d="M426,14v81h-90V14H426 M427,13h-92v83h92V13L427,13z"/>
</g>
<g>
	<polygon class="st2" points="356.8,128.5 335.9,95.5 426.1,95.5 405.2,128.5 	"/>
	<path class="st3" d="M425.2,96L405,128h-48l-20.2-32H425.2 M427,95h-92l21.5,34h49L427,95L427,95z"/>
</g>
<rect x="336" y="34" class="st4" width="90" height="1"/>
<rect x="336" y="39" class="st1" width="90" height="1"/>
<rect x="336" y="61" class="st4" width="90" height="1"/>
<rect x="336" y="66" class="st1" width="90" height="1"/>
<polygon class="st0" points="427,13.4 334.8,13.4 346.3,10 418.7,10 "/>
<rect x="346" y="10" class="st2" width="73" height="3.4"/>
<g>
	<g>
		<rect x="444.8" y="13.5" class="st0" width="91" height="82"/>
		<path class="st1" d="M535.3,14v81h-90V14H535.3 M536.3,13h-92v83h92V13L536.3,13z"/>
	</g>
	<g>
		<polygon class="st2" points="466.1,128.5 445.2,95.5 535.4,95.5 514.6,128.5 		"/>
		<path class="st3" d="M534.5,96l-20.2,32h-47.9l-20.2-32H534.5 M536.3,95h-92l21.5,34h49L536.3,95L536.3,95z"/>
	</g>
	<rect x="445.3" y="34" class="st4" width="90" height="1"/>
	<rect x="445.3" y="39" class="st1" width="90" height="1"/>
	<rect x="445.3" y="61" class="st4" width="90" height="1"/>
	<rect x="445.3" y="66" class="st1" width="90" height="1"/>
	<polygon class="st0" points="536.3,13.4 444.1,13.4 455.7,10 528,10 	"/>
	<rect x="455.3" y="10" class="st2" width="73" height="3.4"/>
</g>
<g>
	<g id="lenta1">
		<g>
			<path class="st5" d="M198.6,153.5c-106.4-0.1-52.9,0-160.1,0l0,0c-0.1,0-0.2,0-0.2,0c-5.7,0-10.3,4.6-10.3,10.3
				s4.6,10.3,10.3,10.3c0.1,0,0.2,0,0.2,0l0,0c108.6-0.3,55.1-0.2,160.1,0c5.7,0,10.3-4.6,10.3-10.3
				C209,158.2,204.3,153.5,198.6,153.5z"/>
		</g>
	</g>
	<g>
		<g>
			<circle id="SVGID_2_" class="st6" cx="199.8" cy="163.8" r="4.5"/>
		</g>
	</g>
	<g>
		<g>
			<circle id="SVGID_1_" class="st7" cx="199.8" cy="163.8" r="4.5"/>
		</g>
	</g>
	<g>
		<g>
			<circle id="SVGID_4_" class="st6" cx="37.7" cy="163.8" r="4.5"/>
		</g>
	</g>
	<g>
		<g>
			<circle id="SVGID_3_" class="st7" cx="37.7" cy="163.8" r="4.5"/>
		</g>
	</g>
</g>
<g>
	<g>
		<rect x="183.3" y="211.9" class="st0" width="180.3" height="93.5"/>
		<path class="st1" d="M363,212.4V305H183.8v-92.6H363 M364,211.4H182.8V306H364V211.4L364,211.4z"/>
	</g>
	<g>
		<polygon class="st2" points="225.3,343.1 184.1,305.3 362.7,305.3 321.5,343.1 		"/>
		<path class="st3" d="M361.5,305.8l-40.1,36.7h-95.8l-40.1-36.7H361.5 M364,304.8H182.8l42.3,38.7h96.6L364,304.8L364,304.8z"/>
	</g>
	<rect x="184.7" y="235.4" class="st4" width="177.3" height="1.1"/>
	<rect x="184.7" y="241.1" class="st1" width="177.3" height="1.1"/>
	<rect x="184.7" y="266.1" class="st4" width="177.3" height="1.1"/>
	<rect x="184.7" y="271.8" class="st1" width="177.3" height="1.1"/>
	<polygon class="st0" points="364,211.9 182.3,211.9 205.1,208 347.6,208 	"/>
	<rect x="204.4" y="208" class="st2" width="143.8" height="3.8"/>
</g>
<path class="st8" d="M202.6,148.9"/>
<g>
	<rect x="235" y="224.8" class="st9" width="76.3" height="60.7"/>
	<rect id="weight_x5F_bar" x="237.8" y="255.2" class="st10" width="70.7" height="27.3"/>
	<path class="st11" d="M300.7,267.6h-54.9c-1.4,0-2.5-1.1-2.5-2.5v-21.5c0-1.4,1.1-2.5,2.5-2.5h54.9c1.4,0,2.5,1.1,2.5,2.5v21.5
		C303.2,266.5,302.1,267.6,300.7,267.6z"/>
	<rect x="238" y="245.6" class="st12" width="70.5" height="19.1"/>
	<text id="weight" transform="matrix(1 0 0 1 246.5861 262.7933)" class="st13 st14">2000</text>
</g>
<text id="num_x5F_bunker2" transform="matrix(1 0 0 1 122.0384 31.2451)" class="st15 st13 st16">1</text>
<text id="num_x5F_bunker1" transform="matrix(1 0 0 1 12.7051 31.2451)" class="st15 st13 st16">0</text>
<text id="num_x5F_bunker3" transform="matrix(1 0 0 1 231.3718 31.2451)" class="st15 st13 st16">2</text>
<text id="num_x5F_bunker4" transform="matrix(1 0 0 1 340.7052 31.2451)" class="st15 st13 st16">3</text>
<text id="num_x5F_bunker5" transform="matrix(1 0 0 1 447.393 31.2451)" class="st15 st13 st16">4 </text>
<rect id="bunker1_x5F_work" x="29" y="127.4" class="st17" width="48" height="1.6"/>
<g>
	<g id="lenta2">
		<g>
			<path class="st18" d="M507.1,153.5c-106.4-0.1-52.9,0-160.1,0l0,0c-0.1,0-0.2,0-0.2,0c-5.7,0-10.3,4.6-10.3,10.3
				s4.6,10.3,10.3,10.3c0.1,0,0.2,0,0.2,0l0,0c108.6-0.3,55.1-0.2,160.1,0c5.7,0,10.3-4.6,10.3-10.3
				C517.5,158.1,512.9,153.5,507.1,153.5z"/>
		</g>
	</g>
	<g>
		<g>
			<circle id="SVGID_12_" class="st6" cx="508.3" cy="163.8" r="4.5"/>
		</g>
	</g>
	<g>
		<g>
			<circle id="SVGID_11_" class="st7" cx="508.3" cy="163.8" r="4.5"/>
		</g>
	</g>
	<g>
		<g>
			<circle id="SVGID_7_" class="st6" cx="346.2" cy="163.8" r="4.5"/>
		</g>
	</g>
	<g>
		<g>
			<circle id="SVGID_5_" class="st7" cx="346.2" cy="163.8" r="4.5"/>
		</g>
	</g>
</g>
<rect id="bunker2_x5F_work" x="138.3" y="127.4" class="st17" width="48" height="1.6"/>
<rect id="bunker3_x5F_work" x="247.5" y="128.2" class="st17" width="48" height="1.6"/>
<rect id="bunker4_x5F_work" x="356.9" y="128.2" class="st17" width="48" height="1.6"/>
<rect id="bunker5_x5F_work" x="466.2" y="128.2" class="st17" width="48" height="1.6"/>
<text id="in_x5F_konv" transform="matrix(1 0 0 1 243 373)" class="st19 st20 st21">в конвертер</text>
<text id="in_x5F_kovsh" transform="matrix(1 0 0 1 258 379)" class="st19 st20 st21">в ковш</text>
<rect id="VB_x5F_work" x="224.9" y="341.7" class="st17" width="96.6" height="1.6"/>
</svg>
